<?xml version="1.0" encoding="utf-8"?><svg xmlns="http://www.w3.org/2000/svg" xmlns:xlink="http://www.w3.org/1999/xlink" width="1440" height="820" preserveAspectRatio="xMidYMid" viewBox="0 0 1440 820" style="z-index:1;margin-right:-2px;display:block;background-color:rgb(255, 255, 255);animation-play-state:paused" ><g transform="translate(720,410) scale(-1,1) translate(-720,-410)" style="animation-play-state:paused" ><linearGradient id="lg-0.7340894781785462" x1="0" x2="1" y1="0" y2="0" style="animation-play-state:paused" ><stop stop-color="#c5afff" offset="0" style="animation-play-state:paused" ></stop>

  
<stop stop-color="#c8ff29" offset="1" style="animation-play-state:paused" ></stop></linearGradient>
<path d="M0 0M0 759.1144409179688Q144 692.6515502929688 288 692.6196899414062T576 653.7176513671875T864 669.5067749023438T1152 589.3352661132812T1440 619.0530395507812L1440 187.72389221191406Q1296 167.94639587402344 1152 166.78662109375T864 158.35902404785156T576 164.2744903564453T288 151.22613525390625T0 119.65460205078125Z" fill="url(#lg-0.7340894781785462)" opacity="0.4" style="opacity:0.4000000059604645;animation-play-state:paused" ></path>
<path d="M0 0M0 757.7838134765625Q144 727.0718383789062 288 722.686767578125T576 682.206298828125T864 648.9060668945312T1152 598.389892578125T1440 627.0435180664062L1440 228.3876495361328Q1296 170.27928161621094 1152 165.84861755371094T864 205.9853515625T576 153.3651123046875T288 76.58722686767578T0 69.32801055908203Z" fill="url(#lg-0.7340894781785462)" opacity="0.4" style="opacity:0.4000000059604645;animation-play-state:paused" ></path>
<path d="M0 0M0 735.2467651367188Q144 736.3642578125 288 731.14306640625T576 653.2308349609375T864 630.782470703125T1152 620.95751953125T1440 606.7557373046875L1440 222.36325073242188Q1296 201.68153381347656 1152 196.2924041748047T864 167.92926025390625T576 126.57438659667969T288 104.5716781616211T0 84.68597412109375Z" fill="url(#lg-0.7340894781785462)" opacity="0.4" style="opacity:0.4000000059604645;animation-play-state:paused" ></path>
<path d="M0 0M0 736.30029296875Q144 714.2219848632812 288 707.1427001953125T576 684.862060546875T864 682.8735961914062T1152 585.89111328125T1440 552.894287109375L1440 251.05911254882812Q1296 212.61871337890625 1152 210.69578552246094T864 151.27713012695312T576 166.38462829589844T288 116.54655456542969T0 64.0677490234375Z" fill="url(#lg-0.7340894781785462)" opacity="0.4" style="opacity:0.4000000059604645;animation-play-state:paused" ></path></g></svg>