<?xml version="1.0" encoding="utf-8"?><svg xmlns="http://www.w3.org/2000/svg" xmlns:xlink="http://www.w3.org/1999/xlink" width="1440" height="820" preserveAspectRatio="xMidYMid" viewBox="0 0 1440 820" style="z-index:1;margin-right:-2px;display:block;background-color:rgb(255, 255, 255);animation-play-state:paused" ><g transform="translate(720,410) scale(1,1) translate(-720,-410)" style="animation-play-state:paused" ><linearGradient id="lg-0.7096860598543342" x1="0" x2="1" y1="0" y2="0" style="animation-play-state:paused" ><stop stop-color="#c8ff29" offset="0" style="animation-play-state:paused" ></stop>

  
<stop stop-color="#c5afff" offset="1" style="animation-play-state:paused" ></stop></linearGradient>
<path d="M0 0M0 717.2512817382812Q144 676.45654296875 288 675.2169799804688T576 657.876953125T864 612.260009765625T1152 618.4765014648438T1440 604.894287109375L1440 214.72921752929688Q1296 162.28407287597656 1152 157.29542541503906T864 168.0032501220703T576 134.35678100585938T288 119.11400604248047T0 111.7630386352539Z" fill="url(#lg-0.7096860598543342)" opacity="0.4" style="opacity:0.4000000059604645;animation-play-state:paused" ></path>
<path d="M0 0M0 747.9315185546875Q144 732.180419921875 288 725.2890014648438T576 691.218994140625T864 682.338134765625T1152 599.3118896484375T1440 600.8936767578125L1440 255.9519500732422Q1296 220.6123046875 1152 218.087646484375T864 166.49441528320312T576 153.3088836669922T288 119.90767669677734T0 61.855796813964844Z" fill="url(#lg-0.7096860598543342)" opacity="0.4" style="opacity:0.4000000059604645;animation-play-state:paused" ></path>
<path d="M0 0M0 765.91455078125Q144 729.500244140625 288 722.6156005859375T576 673.1795654296875T864 648.1429443359375T1152 609.1912841796875T1440 581.9209594726562L1440 249.42129516601562Q1296 200.3916015625 1152 198.78762817382812T864 172.95684814453125T576 173.1925811767578T288 128.44021606445312T0 79.9286880493164Z" fill="url(#lg-0.7096860598543342)" opacity="0.4" style="opacity:0.4000000059604645;animation-play-state:paused" ></path>
<path d="M0 0M0 727.0474243164062Q144 722.5780029296875 288 716.8599243164062T576 664.8817138671875T864 668.378662109375T1152 595.1407470703125T1440 576.8516235351562L1440 223.7405242919922Q1296 165.57156372070312 1152 159.66152954101562T864 134.65699768066406T576 104.6990966796875T288 85.09233856201172T0 50.588130950927734Z" fill="url(#lg-0.7096860598543342)" opacity="0.4" style="opacity:0.4000000059604645;animation-play-state:paused" ></path></g></svg>