<?xml version="1.0" encoding="utf-8"?><svg xmlns="http://www.w3.org/2000/svg" xmlns:xlink="http://www.w3.org/1999/xlink" width="1440" height="820" preserveAspectRatio="xMidYMid" viewBox="0 0 1440 820" style="z-index:1;margin-right:-2px;display:block;background-color:rgb(255, 255, 255);animation-play-state:paused" ><g transform="translate(720,410) scale(1,1) translate(-720,-410)" style="animation-play-state:paused" ><linearGradient id="lg-0.09638727537639202" x1="0" x2="1" y1="0" y2="0" style="animation-play-state:paused" ><stop stop-color="#c5afff" offset="0" style="animation-play-state:paused" ></stop>

  
<stop stop-color="#c8ff29" offset="1" style="animation-play-state:paused" ></stop></linearGradient>
<path d="M0 0L0 785.5301513671875Q144 702.8766479492188 288 661.1236572265625T576 624.1954345703125T864 466.7078552246094T1152 486.4171142578125T1440 428.19537353515625L1440 0Z" fill="url(#lg-0.09638727537639202)" opacity="0.4" style="opacity:0.4000000059604645;animation-play-state:paused" ></path>
<path d="M0 0L0 750.4501953125Q144 677.0286254882812 288 650.574951171875T576 574.4630737304688T864 521.8756713867188T1152 388.5089111328125T1440 384.680419921875L1440 0Z" fill="url(#lg-0.09638727537639202)" opacity="0.4" style="opacity:0.4000000059604645;animation-play-state:paused" ></path>
<path d="M0 0L0 724.142578125Q144 670.4132080078125 288 633.042724609375T576 537.5986328125T864 580.25537109375T1152 478.8555908203125T1440 355.1790771484375L1440 0Z" fill="url(#lg-0.09638727537639202)" opacity="0.4" style="opacity:0.4000000059604645;animation-play-state:paused" ></path>
<path d="M0 0L0 810.1857299804688Q144 691.759521484375 288 660.6253662109375T576 550.8511352539062T864 574.8449096679688T1152 479.5406494140625T1440 323.1003723144531L1440 0Z" fill="url(#lg-0.09638727537639202)" opacity="0.4" style="opacity:0.4000000059604645;animation-play-state:paused" ></path>
<path d="M0 0L0 763.7765502929688Q144 695.30029296875 288 657.0845947265625T576 599.845947265625T864 496.053466796875T1152 352.8095397949219T1440 350.4552307128906L1440 0Z" fill="url(#lg-0.09638727537639202)" opacity="0.4" style="opacity:0.4000000059604645;animation-play-state:paused" ></path></g></svg>