<?xml version="1.0" encoding="utf-8"?><svg xmlns="http://www.w3.org/2000/svg" xmlns:xlink="http://www.w3.org/1999/xlink" width="1440" height="820" preserveAspectRatio="xMidYMid" viewBox="0 0 1440 820" style="z-index:1;margin-right:-2px;display:block;background-color:rgb(255, 255, 255);animation-play-state:paused" ><g transform="translate(720,410) scale(-1,-1) translate(-720,-410)" style="animation-play-state:paused" ><linearGradient id="lg-0.1077998189217152" x1="0" x2="1" y1="0" y2="0" style="animation-play-state:paused" ><stop stop-color="#c5afff" offset="0" style="animation-play-state:paused" ></stop>

  
<stop stop-color="#c8ff29" offset="1" style="animation-play-state:paused" ></stop></linearGradient>
<path d="M0 0L0 798.282470703125Q144 767.1538696289062 288 724.739990234375T576 655.2131958007812T864 488.4367980957031T1152 467.9283752441406T1440 343.06524658203125L1440 0Z" fill="url(#lg-0.1077998189217152)" opacity="0.4" style="opacity:0.4000000059604645;animation-play-state:paused" ></path>
<path d="M0 0L0 763.7266235351562Q144 734.4989624023438 288 707.6205444335938T576 634.416259765625T864 469.5304260253906T1152 406.30670166015625T1440 289.6166687011719L1440 0Z" fill="url(#lg-0.1077998189217152)" opacity="0.4" style="opacity:0.4000000059604645;animation-play-state:paused" ></path>
<path d="M0 0L0 752.1309814453125Q144 665.484619140625 288 639.0582885742188T576 649.3274536132812T864 487.53656005859375T1152 471.9751892089844T1440 407.3984680175781L1440 0Z" fill="url(#lg-0.1077998189217152)" opacity="0.4" style="opacity:0.4000000059604645;animation-play-state:paused" ></path>
<path d="M0 0L0 707.5957641601562Q144 664.0978393554688 288 620.9027709960938T576 553.7516479492188T864 580.2819213867188T1152 438.6923522949219T1440 328.68902587890625L1440 0Z" fill="url(#lg-0.1077998189217152)" opacity="0.4" style="opacity:0.4000000059604645;animation-play-state:paused" ></path>
<path d="M0 0L0 733.7572631835938Q144 730.0286865234375 288 697.212646484375T576 602.0615234375T864 487.14202880859375T1152 462.10498046875T1440 309.0837097167969L1440 0Z" fill="url(#lg-0.1077998189217152)" opacity="0.4" style="opacity:0.4000000059604645;animation-play-state:paused" ></path></g></svg>