<?xml version="1.0" encoding="utf-8"?><svg xmlns="http://www.w3.org/2000/svg" xmlns:xlink="http://www.w3.org/1999/xlink" width="1440" height="820" preserveAspectRatio="xMidYMid" viewBox="0 0 1440 820" style="z-index:1;margin-right:-2px;display:block;background-color:rgb(255, 255, 255);animation-play-state:paused" ><g transform="translate(720,410) scale(-1,1) translate(-720,-410)" style="animation-play-state:paused" ><linearGradient id="lg-0.7244001561083496" x1="0" x2="1" y1="0" y2="0" style="animation-play-state:paused" ><stop stop-color="#c5afff" offset="0" style="animation-play-state:paused" ></stop>

  
<stop stop-color="#c8ff29" offset="1" style="animation-play-state:paused" ></stop></linearGradient>
<path d="M0 0L0 724.2827758789062Q144 742.2865600585938 288 715.771240234375T576 614.037109375T864 459.70684814453125T1152 408.7615661621094T1440 261.1509094238281L1440 0Z" fill="url(#lg-0.7244001561083496)" opacity="0.4" style="opacity:0.4000000059604645;animation-play-state:paused" ></path>
<path d="M0 0L0 761.6980590820312Q144 665.5384521484375 288 631.854736328125T576 541.9940795898438T864 508.69708251953125T1152 444.3493347167969T1440 267.8230285644531L1440 0Z" fill="url(#lg-0.7244001561083496)" opacity="0.4" style="opacity:0.4000000059604645;animation-play-state:paused" ></path>
<path d="M0 0L0 772.3724365234375Q144 746.6826782226562 288 712.1370849609375T576 569.9874267578125T864 496.45330810546875T1152 458.3174133300781T1440 364.45391845703125L1440 0Z" fill="url(#lg-0.7244001561083496)" opacity="0.4" style="opacity:0.4000000059604645;animation-play-state:paused" ></path>
<path d="M0 0L0 806.79443359375Q144 658.8602905273438 288 615.4227294921875T576 537.9179077148438T864 489.0009460449219T1152 416.98626708984375T1440 328.17047119140625L1440 0Z" fill="url(#lg-0.7244001561083496)" opacity="0.4" style="opacity:0.4000000059604645;animation-play-state:paused" ></path>
<path d="M0 0L0 767.3622436523438Q144 656.3960571289062 288 623.930419921875T576 610.5690307617188T864 497.5008850097656T1152 430.624755859375T1440 303.3155822753906L1440 0Z" fill="url(#lg-0.7244001561083496)" opacity="0.4" style="opacity:0.4000000059604645;animation-play-state:paused" ></path></g></svg>