<?xml version="1.0" encoding="utf-8"?>
<!-- Generator: Adobe Illustrator 26.5.0, SVG Export Plug-In . SVG Version: 6.00 Build 0)  -->
<svg version="1.1" id="Layer_1" xmlns="http://www.w3.org/2000/svg" xmlns:xlink="http://www.w3.org/1999/xlink" x="0px" y="0px"
	 viewBox="0 0 512 512" style="enable-background:new 0 0 512 512;" xml:space="preserve">
<style type="text/css">
	.st0{fill:#5FBA46;}
	.st1{fill:#231F20;}
</style>
<g id="XMLID_1_">
	<path id="XMLID_5_" class="st0" d="M0,429.54h31.84c6.87,0,12.06,1.68,15.57,4.91c3.51,3.37,5.19,8,5.19,14.03
		c0,6.31-1.82,11.22-5.61,14.73c-3.79,3.51-9.54,5.33-17.25,5.33H19.22v23H0V429.54z M19.22,456.05h4.63c3.65,0,6.31-0.7,7.72-1.96
		c1.54-1.26,2.24-2.95,2.24-4.91c0-1.96-0.7-3.65-1.96-4.91c-1.26-1.4-3.79-1.96-7.29-1.96h-5.47v13.75H19.22z"/>
	<path id="XMLID_6_" class="st0" d="M61.72,446.65h16.13v7.29c1.54-3.23,3.09-5.33,4.77-6.59c1.68-1.26,3.65-1.82,6.17-1.82
		c2.52,0,5.33,0.84,8.28,2.38l-5.33,12.2c-1.96-0.84-3.65-1.26-4.77-1.26c-2.24,0-4.07,0.98-5.19,2.81
		c-1.82,2.67-2.67,7.57-2.67,14.73v15.01H61.86v-44.75H61.72z"/>
	<path id="XMLID_9_" class="st0" d="M100.58,429.54h17.25v11.78h-17.25V429.54z M100.58,446.65h17.25v44.89h-17.25V446.65z"/>
	<polygon id="XMLID_10_" class="st0" points="123.72,446.65 141.68,446.65 150.37,475.13 159.35,446.65 176.75,446.65 
		157.67,491.54 142.38,491.54 	"/>
	<path id="XMLID_13_" class="st0" d="M197.37,461.24l-16.41-1.68c0.56-2.95,1.54-5.19,2.67-6.73c1.12-1.68,2.81-3.09,5.05-4.35
		c1.54-0.84,3.79-1.54,6.45-1.96c2.81-0.42,5.75-0.7,8.98-0.7c5.19,0,9.26,0.28,12.48,0.84c3.09,0.56,5.75,1.82,7.86,3.65
		c1.4,1.26,2.67,3.09,3.51,5.33c0.84,2.38,1.26,4.49,1.26,6.59V482c0,2.1,0.14,3.79,0.42,4.91c0.28,1.26,0.84,2.67,1.82,4.63h-16.13
		c-0.7-1.12-1.12-2.1-1.26-2.67c-0.14-0.56-0.42-1.54-0.56-2.81c-2.24,2.1-4.49,3.79-6.73,4.63c-3.09,1.26-6.59,1.82-10.66,1.82
		c-5.33,0-9.4-1.26-12.2-3.79c-2.81-2.52-4.21-5.47-4.21-9.12c0-3.37,0.98-6.17,2.95-8.42c1.96-2.24,5.75-3.79,11.08-4.91
		c6.45-1.26,10.66-2.24,12.62-2.67c1.96-0.56,3.93-1.26,6.03-2.1c0-2.1-0.42-3.65-1.26-4.49c-0.84-0.84-2.38-1.26-4.63-1.26
		c-2.81,0-4.91,0.42-6.31,1.4C199.05,458.01,198.07,459.28,197.37,461.24z M212.37,470.22c-2.38,0.84-4.77,1.54-7.43,2.24
		c-3.51,0.98-5.75,1.82-6.59,2.81c-0.98,0.98-1.4,1.96-1.4,3.23c0,1.4,0.42,2.52,1.4,3.37c0.98,0.84,2.38,1.26,4.21,1.26
		c1.96,0,3.65-0.42,5.33-1.4c1.68-0.98,2.81-2.1,3.51-3.37c0.7-1.4,0.98-3.09,0.98-5.19V470.22z"/>
	<path id="XMLID_14_" class="st0" d="M258.81,429.54v17.11h9.54v12.62h-9.54v15.85c0,1.96,0.14,3.23,0.56,3.79
		c0.56,0.98,1.54,1.4,2.95,1.4c1.26,0,3.09-0.42,5.33-1.12l1.26,11.92c-4.21,0.98-8.28,1.4-11.92,1.4c-4.35,0-7.43-0.56-9.54-1.68
		c-1.96-1.12-3.51-2.81-4.49-5.05c-0.98-2.24-1.4-5.89-1.4-10.94V459h-6.31v-12.62h6.31v-8L258.81,429.54z"/>
	<path id="XMLID_18_" class="st0" d="M277.6,429.54h35.91c6.03,0,10.52,1.54,13.75,4.49s4.77,6.59,4.77,10.94
		c0,3.65-1.12,6.87-3.37,9.4c-1.54,1.68-3.79,3.09-6.73,4.21c4.49,1.12,7.72,2.95,9.82,5.47c2.1,2.67,3.09,5.89,3.09,9.82
		c0,3.23-0.7,6.17-2.24,8.7c-1.54,2.52-3.51,4.63-6.17,6.03c-1.54,0.98-4.07,1.54-7.29,1.96c-4.35,0.56-7.15,0.84-8.56,0.84h-33.1
		v-61.86H277.6z M296.96,453.95h8.28c2.95,0,5.05-0.56,6.17-1.54c1.12-0.98,1.82-2.52,1.82-4.49c0-1.82-0.56-3.23-1.82-4.21
		c-1.12-0.98-3.23-1.54-6.17-1.54h-8.42v11.78H296.96z M296.96,478.21h9.82c3.37,0,5.61-0.56,7.01-1.82
		c1.4-1.12,1.96-2.81,1.96-4.77c0-1.82-0.7-3.37-1.96-4.35c-1.4-1.12-3.65-1.68-7.01-1.68h-9.68v12.62H296.96z"/>
	<path id="XMLID_21_" class="st0" d="M359.52,461.24l-16.41-1.68c0.56-2.95,1.54-5.19,2.67-6.73c1.12-1.68,2.81-3.09,5.05-4.35
		c1.54-0.84,3.79-1.54,6.45-1.96c2.81-0.42,5.75-0.7,8.98-0.7c5.19,0,9.26,0.28,12.48,0.84c3.09,0.56,5.75,1.82,7.86,3.65
		c1.4,1.26,2.67,3.09,3.51,5.33c0.84,2.38,1.26,4.49,1.26,6.59V482c0,2.1,0.14,3.79,0.42,4.91c0.28,1.26,0.84,2.67,1.82,4.63h-16.13
		c-0.7-1.12-1.12-2.1-1.26-2.67c-0.14-0.56-0.42-1.54-0.56-2.81c-2.24,2.1-4.49,3.79-6.73,4.63c-3.09,1.26-6.59,1.82-10.66,1.82
		c-5.33,0-9.4-1.26-12.2-3.79c-2.81-2.52-4.21-5.47-4.21-9.12c0-3.37,0.98-6.17,2.95-8.42s5.75-3.79,11.08-4.91
		c6.45-1.26,10.66-2.24,12.62-2.67c1.96-0.56,3.93-1.26,6.03-2.1c0-2.1-0.42-3.65-1.26-4.49c-0.84-0.84-2.38-1.26-4.63-1.26
		c-2.81,0-4.91,0.42-6.31,1.4C361.07,458.01,360.22,459.28,359.52,461.24z M374.53,470.22c-2.38,0.84-4.77,1.54-7.43,2.24
		c-3.51,0.98-5.75,1.82-6.59,2.81c-0.98,0.98-1.4,1.96-1.4,3.23c0,1.4,0.42,2.52,1.4,3.37c0.98,0.84,2.38,1.26,4.21,1.26
		c1.96,0,3.65-0.42,5.33-1.4c1.68-0.98,2.81-2.1,3.51-3.37c0.7-1.4,0.98-3.09,0.98-5.19V470.22z"/>
	<path id="XMLID_22_" class="st0" d="M401.6,446.65h15.99v7.29c2.38-2.95,4.77-5.19,7.29-6.45c2.38-1.26,5.47-1.96,8.98-1.96
		c4.77,0,8.56,1.4,11.22,4.21s4.07,7.15,4.07,13.19v28.62H431.9v-24.69c0-2.81-0.56-4.77-1.54-6.03c-0.98-1.12-2.52-1.82-4.35-1.82
		c-2.1,0-3.79,0.84-5.05,2.38s-1.96,4.35-1.96,8.56v21.6h-17.25v-44.89H401.6z"/>
	<polygon id="XMLID_23_" class="st0" points="459.4,429.54 477.07,429.54 477.07,461.66 489.84,446.65 511.02,446.65 494.89,462.36 
		512,491.54 492.64,491.54 483.52,473.59 477.07,479.9 477.07,491.54 459.4,491.54 	"/>
	<rect id="XMLID_24_" x="63.4" y="248.02" class="st1" width="146.73" height="146.73"/>
	<path id="XMLID_27_" class="st0" d="M63.54,19.38v182.64h38.86c102.12,0,153.88,51.76,153.88,153.88v38.86h182.64V19.38H63.54z
		 M361.35,97.09L361.35,97.09c0,49.8,0,170.29,0,220.09c-14.03,0-16.41,0-29.88,0c-12.91-108.85-81.36-177.31-190.21-190.21
		c0-13.61,0-15.99,0-30.02C191.05,97.09,311.55,97.09,361.35,97.09z"/>
</g>
</svg>
